<svg width="104" height="104" viewBox="0 0 104 104" fill="none" xmlns="http://www.w3.org/2000/svg">
<rect width="104" height="104" rx="16" fill="#16161A"/>
<path d="M61.1191 25.5C65.4806 25.5 69.7221 26.3455 73.7148 28.0156L74.4326 28.3262C78.0001 29.9191 81.2196 32.1216 84.0059 34.877L84.5557 35.4336C87.2677 38.2461 89.419 41.4844 90.9502 45.0645C92.6422 49.0205 93.5 53.2252 93.5 57.5498C93.4999 63.1501 91.2887 68.4227 87.293 72.374L87.292 72.373C83.2973 76.3234 77.9802 78.5 72.3428 78.5C64.5685 78.5 58.1992 72.2419 58.1992 64.4863C58.1993 59.0258 62.6804 54.6348 68.1338 54.6348C72.04 54.6348 75.2617 57.7813 75.2617 61.7119C75.2616 64.8771 72.6697 67.4011 69.5371 67.4014C67.1779 67.4014 65.2148 65.4992 65.2148 63.0986V61.6699C64.4855 62.4004 64.0381 63.3993 64.0381 64.4863C64.0381 68.9707 67.7398 72.6709 72.3428 72.6709C80.8135 72.6707 87.661 65.8589 87.6611 57.5498C87.6611 50.5505 84.9109 43.9764 79.8975 39.0186C74.8831 34.0598 68.2225 31.3291 61.1191 31.3291C55.0639 31.3291 49.1996 32.5008 43.6797 34.8096C38.3458 37.0406 33.5586 40.2331 29.4443 44.3018C25.3301 48.3705 22.1055 53.1016 19.8525 58.3691C17.5212 63.8202 16.3389 69.6086 16.3389 75.585V78.085H10.5V75.585C10.5 68.8258 11.8404 62.2596 14.4834 56.0801C17.0352 50.1139 20.689 44.7556 25.3359 40.1602C29.9828 35.5649 35.3979 31.9542 41.4238 29.4336C47.6652 26.823 54.2956 25.5 61.1191 25.5ZM68.1338 60.4639C67.7698 60.4639 67.4177 60.5114 67.083 60.5986H68.7119C68.5397 60.5141 68.3445 60.4639 68.1338 60.4639Z" fill="white" stroke="white" stroke-width="5"/>
</svg>

